<svg width="22" height="22" viewBox="0 0 22 22" fill="none" xmlns="http://www.w3.org/2000/svg">
<g clip-path="url(#clip0_1_7939)">
<path d="M18.2774 4.32736C16.939 3.71324 15.5037 3.26075 14.0029 3.00158C13.9756 2.99657 13.9483 3.00908 13.9342 3.03406C13.7496 3.36239 13.5452 3.79068 13.402 4.12733C11.7879 3.88567 10.1821 3.88567 8.60107 4.12733C8.45784 3.78321 8.24595 3.36239 8.06052 3.03406C8.04645 3.0099 8.01914 2.99739 7.99182 3.00158C6.49196 3.25989 5.05666 3.71238 3.71734 4.32736C3.70573 4.33237 3.6958 4.34069 3.6892 4.35152C0.966748 8.41884 0.22092 12.3862 0.586779 16.3043C0.58842 16.3235 0.599207 16.3418 0.614095 16.3535C2.41029 17.6726 4.15026 18.4734 5.85786 19.0042C5.88518 19.0126 5.91413 19.0026 5.93152 18.9801C6.33545 18.4285 6.69552 17.8468 7.00425 17.2351C7.02246 17.1993 7.00507 17.1568 6.96783 17.1427C6.39668 16.926 5.85286 16.6618 5.3297 16.3619C5.28832 16.3377 5.285 16.2785 5.3231 16.2502C5.43319 16.1677 5.54331 16.0819 5.64844 15.9952C5.66747 15.9794 5.69396 15.976 5.71632 15.986C9.1531 17.5551 12.8738 17.5551 16.27 15.986C16.2924 15.9752 16.3189 15.9785 16.3387 15.9943C16.4439 16.081 16.554 16.1677 16.6649 16.2502C16.703 16.2785 16.7005 16.3377 16.6591 16.3618C16.136 16.6677 15.5921 16.926 15.0202 17.1418C14.9829 17.1559 14.9664 17.1993 14.9846 17.2351C15.3 17.8459 15.6601 18.4276 16.0565 18.9792C16.0731 19.0025 16.1029 19.0126 16.1302 19.0042C17.8461 18.4734 19.586 17.6726 21.3822 16.3535C21.398 16.3418 21.4079 16.3243 21.4096 16.3052C21.8474 11.7754 20.6761 7.84052 18.3047 4.35234C18.2989 4.34069 18.289 4.33237 18.2774 4.32736ZM7.51756 13.9186C6.48286 13.9186 5.63027 12.9687 5.63027 11.802C5.63027 10.6354 6.46629 9.68544 7.51756 9.68544C8.57703 9.68544 9.42138 10.6437 9.40481 11.802C9.40481 12.9687 8.56875 13.9186 7.51756 13.9186ZM14.4954 13.9186C13.4608 13.9186 12.6082 12.9687 12.6082 11.802C12.6082 10.6354 13.4442 9.68544 14.4954 9.68544C15.5549 9.68544 16.3992 10.6437 16.3827 11.802C16.3827 12.9687 15.555 13.9186 14.4954 13.9186Z" fill="white"/>
</g>
<defs>
<clipPath id="clip0_1_7939">
<rect width="21" height="21" fill="white" transform="translate(0.5 0.503906)"/>
</clipPath>
</defs>
</svg>
