<svg width="21" height="21" viewBox="0 0 21 21" fill="none" xmlns="http://www.w3.org/2000/svg">
<path d="M10.5002 0.135128C6.40426 0.135128 2.51472 -0.228947 1.02906 3.58088C0.415398 5.1544 0.504514 7.19796 0.504514 10.1241C0.504514 12.6918 0.422166 15.105 1.02906 16.6662C2.51133 20.4782 6.43247 20.113 10.498 20.113C14.4203 20.113 18.4643 20.5211 19.9681 16.6662C20.5828 15.0769 20.4926 13.0637 20.4926 10.1241C20.4926 6.22183 20.7081 3.70261 18.814 1.81122C16.8963 -0.104959 14.3029 0.135128 10.4957 0.135128H10.5002ZM9.60457 1.93521C18.1485 1.92169 19.2359 0.972614 18.6358 14.1571C18.4226 18.8202 14.8692 18.3084 10.5014 18.3084C2.53728 18.3084 2.30828 18.0807 2.30828 10.1196C2.30828 2.06596 2.93999 1.93972 9.60457 1.93296V1.93521ZM15.836 3.59328C15.1738 3.59328 14.6368 4.12981 14.6368 4.79145C14.6368 5.4531 15.1738 5.98963 15.836 5.98963C16.4981 5.98963 17.0351 5.4531 17.0351 4.79145C17.0351 4.12981 16.4981 3.59328 15.836 3.59328ZM10.5002 4.99434C7.66543 4.99434 5.36758 7.29151 5.36758 10.1241C5.36758 12.9567 7.66543 15.2527 10.5002 15.2527C13.3351 15.2527 15.6318 12.9567 15.6318 10.1241C15.6318 7.29151 13.3351 4.99434 10.5002 4.99434ZM10.5002 6.79443C14.9053 6.79443 14.911 13.4537 10.5002 13.4537C6.0963 13.4537 6.08954 6.79443 10.5002 6.79443Z" fill="white"/>
</svg>
